<svg xmlns="http://www.w3.org/2000/svg" xmlns:xlink="http://www.w3.org/1999/xlink" width="1500" zoomAndPan="magnify" viewBox="0 0 1125 809.999993" height="1080" preserveAspectRatio="xMidYMid meet" version="1.0"><path fill="#313131" d="M 1016.679688 271.621094 C 1016.679688 225.628906 979.394531 188.34375 933.402344 188.34375 C 887.410156 188.34375 850.125 225.628906 850.125 271.621094 C 850.125 317.613281 887.410156 354.898438 933.402344 354.898438 C 979.394531 354.898438 1016.679688 317.613281 1016.679688 271.621094 Z M 1016.679688 271.621094 " fill-opacity="1" fill-rule="nonzero"/><path fill="#f6efe3" d="M 933.402344 344.5 C 893.21875 344.5 860.523438 311.804688 860.523438 271.621094 C 860.523438 231.433594 893.21875 198.738281 933.402344 198.738281 C 973.589844 198.738281 1006.28125 231.433594 1006.28125 271.621094 C 1006.28125 311.804688 973.589844 344.5 933.402344 344.5 Z M 933.402344 344.5 " fill-opacity="1" fill-rule="nonzero"/><path fill="#313131" d="M 934.03125 210.734375 C 911.09375 210.734375 899.726562 234.160156 897.777344 252.175781 C 895.828125 270.191406 896.953125 289.246094 904.859375 292.875 C 912.769531 296.511719 928.40625 288.0625 928.40625 288.0625 C 928.40625 288.0625 933.832031 295.566406 943.074219 294.609375 C 952.320312 293.660156 952.675781 286.929688 952.675781 286.929688 C 952.675781 286.929688 957.792969 293.847656 964.699219 292.042969 C 971.605469 290.242188 970.867188 259.902344 968.671875 247.773438 C 966.480469 235.644531 956.96875 210.734375 934.03125 210.734375 Z M 934.03125 210.734375 " fill-opacity="1" fill-rule="nonzero"/><path fill="#b5d5c5" d="M 990.679688 316.640625 C 977.320312 333.589844 956.617188 344.5 933.410156 344.5 C 910.191406 344.5 889.476562 333.589844 876.125 316.632812 C 877.125 306.078125 886.015625 297.8125 896.828125 297.8125 C 896.828125 297.8125 969.976562 297.8125 969.976562 297.8125 C 980.800781 297.8125 989.691406 306.078125 990.679688 316.640625 Z M 990.679688 316.640625 " fill-opacity="1" fill-rule="nonzero"/><path fill="#f5a989" d="M 948.628906 273.371094 C 948.628906 273.371094 918.175781 273.371094 918.175781 273.371094 C 918.175781 273.371094 918.175781 297.816406 918.175781 297.816406 C 918.175781 297.816406 921.878906 307.113281 933.402344 307.113281 C 944.929688 307.113281 948.628906 297.816406 948.628906 297.816406 C 948.628906 297.816406 948.628906 273.371094 948.628906 273.371094 Z M 948.628906 273.371094 " fill-opacity="1" fill-rule="nonzero"/><path fill="#313131" d="M 948.628906 273.371094 C 948.628906 273.371094 918.175781 273.371094 918.175781 273.371094 C 918.175781 273.371094 918.175781 285.019531 918.175781 285.019531 C 918.175781 285.019531 923.492188 294.695312 933.402344 294.695312 C 943.316406 294.695312 948.628906 285.019531 948.628906 285.019531 C 948.628906 285.019531 948.628906 273.371094 948.628906 273.371094 Z M 948.628906 273.371094 " fill-opacity="1" fill-rule="nonzero"/><path stroke-linecap="round" transform="matrix(1.039795, 0, 0, 1.039795, 921.318535, 304.274066)" fill-opacity="1" fill="#b5d5c5" fill-rule="nonzero" stroke-linejoin="round" d="M -11.62168 -6.214272 C -11.62168 -8.614836 -6.546308 -13.494857 -4.371149 -13.494857 C -2.19599 -13.494857 11.621343 2.726797 11.621343 2.726797 C 11.621343 2.726797 3.446651 13.497404 -0.193641 13.497404 C -3.833934 13.497404 -11.62168 -3.813708 -11.62168 -6.214272 Z M -11.62168 -6.214272 " stroke="#313131" stroke-width="2" stroke-opacity="1" stroke-miterlimit="4"/><path stroke-linecap="round" transform="matrix(1.039795, 0, 0, 1.039795, 945.490613, 304.274066)" fill-opacity="1" fill="#b5d5c5" fill-rule="nonzero" stroke-linejoin="round" d="M 11.621147 -6.214272 C 11.621147 -8.614836 6.545775 -13.494857 4.370616 -13.494857 C 2.195457 -13.494857 -11.625632 2.726797 -11.625632 2.726797 C -11.625632 2.726797 -3.447184 13.497404 0.189352 13.497404 C 3.833401 13.497404 11.621147 -3.813708 11.621147 -6.214272 Z M 11.621147 -6.214272 " stroke="#313131" stroke-width="2" stroke-opacity="1" stroke-miterlimit="4"/><path stroke-linecap="round" transform="matrix(1.039795, 0, 0, 1.039795, 1.010916, 0.00002)" fill="none" stroke-linejoin="miter" d="M 861.514093 321.8146 C 861.514093 321.8146 861.514093 301.862491 861.514093 301.862491 " stroke="#313131" stroke-width="2" stroke-opacity="1" stroke-miterlimit="10"/><path stroke-linecap="round" transform="matrix(1.039795, 0, 0, 1.039795, 1.010916, 0.00002)" fill="none" stroke-linejoin="miter" d="M 931.904349 321.8146 C 931.904349 321.8146 931.904349 301.862491 931.904349 301.862491 " stroke="#313131" stroke-width="2" stroke-opacity="1" stroke-miterlimit="10"/><path fill="#f5a989" d="M 962 254.386719 C 962 235.496094 956.191406 218.101562 933.402344 218.101562 C 910.617188 218.101562 904.808594 235.496094 904.808594 254.386719 C 904.808594 273.28125 919.878906 288.597656 933.402344 288.597656 C 946.925781 288.597656 962 273.28125 962 254.386719 Z M 962 254.386719 " fill-opacity="1" fill-rule="nonzero"/><path fill="#f5a989" d="M 899.375 247.492188 C 896.445312 249.601562 895.933594 255.953125 898.308594 260.269531 C 900.679688 264.582031 903.78125 265.914062 906.503906 264.523438 C 909.222656 263.132812 909.949219 257.585938 908.503906 252.632812 C 907.0625 247.675781 902.3125 245.386719 899.375 247.492188 Z M 899.375 247.492188 " fill-opacity="1" fill-rule="nonzero"/><path fill="#f5a989" d="M 967.429688 247.492188 C 970.363281 249.601562 970.875 255.953125 968.5 260.269531 C 966.128906 264.582031 963.027344 265.914062 960.304688 264.523438 C 957.585938 263.132812 956.859375 257.585938 958.304688 252.632812 C 959.746094 247.675781 964.496094 245.386719 967.429688 247.492188 Z M 967.429688 247.492188 " fill-opacity="1" fill-rule="nonzero"/><path stroke-linecap="round" transform="matrix(1.039795, 0, 0, 1.039795, 902.781055, 255.989129)" fill="none" stroke-linejoin="miter" d="M -2.945106 -2.326244 C -2.945106 -2.326244 -2.798593 -6.000347 -0.649731 -5.729861 C 1.499131 -5.459375 2.35567 -2.495298 2.648697 0.371103 C 2.94548 3.237505 2.209157 5.998717 2.209157 5.998717 " stroke="#313131" stroke-width="2" stroke-opacity="1" stroke-miterlimit="10"/><path stroke-linecap="round" transform="matrix(1.039795, 0, 0, 1.039795, 903.858295, 256.928064)" fill="none" stroke-linejoin="miter" d="M -1.681986 -0.261411 C -1.681986 -0.261411 -1.231176 -0.982707 -0.160502 -0.776086 C 0.906415 -0.565708 1.684063 0.98583 1.684063 0.98583 " stroke="#313131" stroke-width="2" stroke-opacity="1" stroke-miterlimit="10"/><path stroke-linecap="round" transform="matrix(1.039795, 0, 0, 1.039795, 964.027036, 255.989129)" fill="none" stroke-linejoin="miter" d="M 2.945589 -2.326244 C 2.945589 -2.326244 2.799076 -6.000347 0.646457 -5.729861 C -1.502405 -5.459375 -2.355188 -2.495298 -2.648214 0.371103 C -2.944998 3.237505 -2.208674 5.998717 -2.208674 5.998717 " stroke="#313131" stroke-width="2" stroke-opacity="1" stroke-miterlimit="10"/><path stroke-linecap="round" transform="matrix(1.039795, 0, 0, 1.039795, 962.949868, 256.928064)" fill="none" stroke-linejoin="miter" d="M 1.6824 -0.261411 C 1.6824 -0.261411 1.23159 -0.982707 0.160916 -0.776086 C -0.909759 -0.565708 -1.68365 0.98583 -1.68365 0.98583 " stroke="#313131" stroke-width="2" stroke-opacity="1" stroke-miterlimit="10"/><path stroke-linecap="round" transform="matrix(1.039795, 0, 0, 1.039795, 933.618246, 263.331129)" fill="none" stroke-linejoin="round" d="M -0.357909 -4.73264 C -0.357909 -4.73264 -1.969556 3.535971 -1.969556 3.535971 C -1.969556 3.535971 1.96752 4.730618 1.96752 4.730618 " stroke="#313131" stroke-width="2" stroke-opacity="1" stroke-miterlimit="4"/><path stroke-linecap="round" transform="matrix(1.039795, 0, 0, 1.039795, 933.40407, 274.739742)" fill="none" stroke-linejoin="round" d="M -5.189734 -0.872971 C -5.189734 -0.872971 -3.360196 0.873918 -0.00166009 0.873918 C 3.360633 0.873918 5.186414 -0.872971 5.186414 -0.872971 " stroke="#313131" stroke-width="2" stroke-opacity="1" stroke-miterlimit="4"/><path fill="#313131" d="M 929.457031 248.285156 C 929.652344 247.128906 926.242188 243.878906 921.496094 243.074219 C 916.75 242.273438 912.460938 244.222656 912.265625 245.378906 C 912.070312 246.535156 915.980469 246.8125 920.726562 247.617188 C 925.472656 248.417969 929.261719 249.441406 929.457031 248.285156 Z M 929.457031 248.285156 " fill-opacity="1" fill-rule="nonzero"/><path fill="#313131" d="M 937.351562 248.285156 C 937.15625 247.128906 940.566406 243.878906 945.3125 243.074219 C 950.058594 242.273438 954.347656 244.222656 954.539062 245.378906 C 954.738281 246.535156 950.828125 246.8125 946.082031 247.617188 C 941.332031 248.417969 937.546875 249.441406 937.351562 248.285156 Z M 937.351562 248.285156 " fill-opacity="1" fill-rule="nonzero"/><path fill="#f6efe3" d="M 929.996094 255.480469 C 929.996094 255.480469 926.558594 250.117188 921.492188 249.40625 C 916.425781 248.695312 911.644531 252.898438 911.644531 252.898438 C 911.644531 252.898438 915.078125 258.257812 920.148438 258.972656 C 925.214844 259.683594 929.996094 255.480469 929.996094 255.480469 Z M 929.996094 255.480469 " fill-opacity="1" fill-rule="nonzero"/><path fill="#313131" d="M 924.695312 254.1875 C 924.695312 252.046875 922.960938 250.3125 920.820312 250.3125 C 918.675781 250.3125 916.941406 252.046875 916.941406 254.1875 C 916.941406 256.332031 918.675781 258.066406 920.820312 258.066406 C 922.960938 258.066406 924.695312 256.332031 924.695312 254.1875 Z M 924.695312 254.1875 " fill-opacity="1" fill-rule="nonzero"/><path fill="#f6efe3" d="M 936.726562 255.480469 C 936.726562 255.480469 940.164062 250.117188 945.230469 249.40625 C 950.296875 248.695312 955.078125 252.898438 955.078125 252.898438 C 955.078125 252.898438 951.644531 258.257812 946.574219 258.972656 C 941.507812 259.683594 936.726562 255.480469 936.726562 255.480469 Z M 936.726562 255.480469 " fill-opacity="1" fill-rule="nonzero"/><path fill="#313131" d="M 949.78125 254.1875 C 949.78125 252.046875 948.046875 250.3125 945.902344 250.3125 C 943.761719 250.3125 942.023438 252.046875 942.023438 254.1875 C 942.023438 256.332031 943.761719 258.066406 945.902344 258.066406 C 948.046875 258.066406 949.78125 256.332031 949.78125 254.1875 Z M 949.78125 254.1875 " fill-opacity="1" fill-rule="nonzero"/><path fill="#b5d5c5" d="M 966.804688 240.886719 C 966.804688 222.441406 951.847656 207.488281 933.402344 207.488281 C 914.957031 207.488281 900.003906 222.441406 900.003906 240.886719 C 900.003906 240.886719 966.804688 240.886719 966.804688 240.886719 Z M 966.804688 240.886719 " fill-opacity="1" fill-rule="nonzero"/><path fill="#b5d5c5" d="M 970 236.945312 C 970 236.945312 896.804688 236.945312 896.804688 236.945312 C 896.804688 236.945312 896.804688 244.832031 896.804688 244.832031 C 896.804688 244.832031 970 244.832031 970 244.832031 C 970 244.832031 970 236.945312 970 236.945312 Z M 970 236.945312 " fill-opacity="1" fill-rule="nonzero"/><path fill="#b5d5c5" d="M 939.570312 204.671875 C 939.570312 204.671875 927.238281 204.671875 927.238281 204.671875 C 927.238281 204.671875 927.238281 221.703125 927.238281 221.703125 C 927.238281 221.703125 939.570312 221.703125 939.570312 221.703125 C 939.570312 221.703125 939.570312 204.671875 939.570312 204.671875 Z M 939.570312 204.671875 " fill-opacity="1" fill-rule="nonzero"/><path stroke-linecap="round" transform="matrix(1.039795, 0, 0, 1.039795, 1.010916, 0.00002)" fill="none" stroke-linejoin="miter" d="M 861.510336 227.877024 C 861.510336 227.877024 931.904349 227.877024 931.904349 227.877024 " stroke="#313131" stroke-width="2" stroke-opacity="1" stroke-miterlimit="10"/><path stroke-linecap="round" transform="matrix(1.039795, 0, 0, 1.039795, 1.010916, 0.00002)" fill="none" stroke-linejoin="miter" d="M 890.779189 196.838742 C 890.779189 196.838742 890.779189 227.877024 890.779189 227.877024 " stroke="#313131" stroke-width="2" stroke-opacity="1" stroke-miterlimit="10"/><path stroke-linecap="round" transform="matrix(1.039795, 0, 0, 1.039795, 1.010916, 0.00002)" fill="none" stroke-linejoin="miter" d="M 902.639254 196.838742 C 902.639254 196.838742 902.639254 227.877024 902.639254 227.877024 " stroke="#313131" stroke-width="2" stroke-opacity="1" stroke-miterlimit="10"/><path stroke-linecap="round" transform="matrix(1.039795, 0, 0, 1.039795, 917.088655, 234.792913)" fill="none" stroke-linejoin="round" d="M 3.626409 -2.069917 C 3.626409 -2.069917 -3.627879 -2.069917 -3.627879 -2.069917 C -3.627879 -2.069917 -3.627879 2.070024 -3.627879 2.070024 C -3.627879 2.070024 3.626409 2.070024 3.626409 2.070024 C 3.626409 2.070024 3.626409 -2.069917 3.626409 -2.069917 Z M 3.626409 -2.069917 " stroke="#313131" stroke-width="2" stroke-opacity="1" stroke-miterlimit="4"/><path stroke-linecap="round" transform="matrix(1.039795, 0, 0, 1.039795, 949.716341, 234.792913)" fill="none" stroke-linejoin="round" d="M -3.626705 -2.069917 C -3.626705 -2.069917 3.627582 -2.069917 3.627582 -2.069917 C 3.627582 -2.069917 3.627582 2.070024 3.627582 2.070024 C 3.627582 2.070024 -3.626705 2.070024 -3.626705 2.070024 C -3.626705 2.070024 -3.626705 -2.069917 -3.626705 -2.069917 Z M -3.626705 -2.069917 " stroke="#313131" stroke-width="2" stroke-opacity="1" stroke-miterlimit="4"/><path fill="#b08bbb" d="M 831.226562 136.445312 C 831.226562 90.453125 793.945312 53.171875 747.949219 53.171875 C 701.960938 53.171875 664.671875 90.453125 664.671875 136.445312 C 664.671875 182.4375 701.960938 219.722656 747.949219 219.722656 C 793.945312 219.722656 831.226562 182.4375 831.226562 136.445312 Z M 831.226562 136.445312 " fill-opacity="1" fill-rule="nonzero"/><path fill="#f6efe3" d="M 747.953125 209.324219 C 707.765625 209.324219 675.074219 176.632812 675.074219 136.445312 C 675.074219 96.261719 707.765625 63.566406 747.953125 63.566406 C 788.136719 63.566406 820.832031 96.261719 820.832031 136.445312 C 820.832031 176.632812 788.136719 209.324219 747.953125 209.324219 Z M 747.953125 209.324219 " fill-opacity="1" fill-rule="nonzero"/><path fill="#313131" d="M 805.226562 181.46875 C 791.867188 198.417969 771.164062 209.324219 747.957031 209.324219 C 724.738281 209.324219 704.023438 198.417969 690.671875 181.457031 C 691.671875 170.90625 700.5625 162.636719 711.375 162.636719 C 711.375 162.636719 784.523438 162.636719 784.523438 162.636719 C 795.347656 162.636719 804.238281 170.90625 805.226562 181.46875 Z M 805.226562 181.46875 " fill-opacity="1" fill-rule="nonzero"/><path fill="#b5d5c5" d="M 763.179688 162.640625 C 763.179688 162.640625 755.953125 208.890625 755.953125 208.890625 C 753.324219 209.179688 750.652344 209.328125 747.949219 209.328125 C 745.242188 209.328125 742.570312 209.179688 739.941406 208.890625 C 739.941406 208.890625 732.726562 162.640625 732.726562 162.640625 C 732.726562 162.640625 763.179688 162.640625 763.179688 162.640625 Z M 763.179688 162.640625 " fill-opacity="1" fill-rule="nonzero"/><path fill="#f5a989" d="M 763.175781 138.195312 C 763.175781 138.195312 732.726562 138.195312 732.726562 138.195312 C 732.726562 138.195312 732.726562 162.640625 732.726562 162.640625 C 732.726562 162.640625 736.425781 171.9375 747.949219 171.9375 C 759.476562 171.9375 763.175781 162.640625 763.175781 162.640625 C 763.175781 162.640625 763.175781 138.195312 763.175781 138.195312 Z M 763.175781 138.195312 " fill-opacity="1" fill-rule="nonzero"/><path fill="#313131" d="M 763.175781 138.195312 C 763.175781 138.195312 732.726562 138.195312 732.726562 138.195312 C 732.726562 138.195312 732.726562 149.847656 732.726562 149.847656 C 732.726562 149.847656 738.035156 159.519531 747.949219 159.519531 C 757.863281 159.519531 763.175781 149.847656 763.175781 149.847656 C 763.175781 149.847656 763.175781 138.195312 763.175781 138.195312 Z M 763.175781 138.195312 " fill-opacity="1" fill-rule="nonzero"/><path stroke-linecap="round" transform="matrix(1.039795, 0, 0, 1.039795, 1.010916, 0.00002)" fill="none" stroke-linejoin="round" d="M 683.158551 191.815965 C 683.158551 191.815965 683.158551 171.8601 683.158551 171.8601 " stroke="#b5d5c5" stroke-width="2" stroke-opacity="1" stroke-miterlimit="4"/><path stroke-linecap="round" transform="matrix(1.039795, 0, 0, 1.039795, 1.010916, 0.00002)" fill="none" stroke-linejoin="round" d="M 753.552563 191.815965 C 753.552563 191.815965 753.552563 171.8601 753.552563 171.8601 " stroke="#b5d5c5" stroke-width="2" stroke-opacity="1" stroke-miterlimit="4"/><path stroke-linecap="round" transform="matrix(1.039795, 0, 0, 1.039795, 768.043454, 184.838068)" fill="none" stroke-linejoin="round" d="M -4.681379 -21.347912 C -4.681379 -21.347912 4.680446 -1.722641 4.680446 -1.722641 C 4.680446 -1.722641 -2.464896 5.768322 -2.464896 5.768322 C -2.464896 5.768322 2.152152 13.210447 2.152152 13.210447 C 2.152152 13.210447 -1.852545 21.347571 -1.852545 21.347571 " stroke="#b5d5c5" stroke-width="2" stroke-opacity="1" stroke-miterlimit="4"/><path stroke-linecap="round" transform="matrix(1.039795, 0, 0, 1.039795, 727.85956, 184.838068)" fill="none" stroke-linejoin="round" d="M 4.680734 -21.347912 C 4.680734 -21.347912 -4.681091 -1.722641 -4.681091 -1.722641 C -4.681091 -1.722641 2.464251 5.768322 2.464251 5.768322 C 2.464251 5.768322 -2.152797 13.210447 -2.152797 13.210447 C -2.152797 13.210447 1.855657 21.347571 1.855657 21.347571 " stroke="#b5d5c5" stroke-width="2" stroke-opacity="1" stroke-miterlimit="4"/><path fill="#b5d5c5" d="M 721.527344 162.640625 C 721.527344 160.683594 729.621094 153.253906 732.726562 154.234375 C 735.828125 155.21875 747.421875 168.609375 745.691406 171.9375 C 743.960938 175.265625 738.152344 181.402344 735.65625 181.417969 C 733.164062 181.433594 721.527344 164.59375 721.527344 162.640625 Z M 721.527344 162.640625 " fill-opacity="1" fill-rule="nonzero"/><path fill="#b08bbb" d="M 754.554688 176.34375 C 754.554688 176.34375 747.953125 172.027344 747.953125 172.027344 C 747.953125 172.027344 741.347656 176.34375 741.347656 176.34375 C 740.226562 177.074219 740.082031 178.664062 741.050781 179.589844 C 741.050781 179.589844 746.515625 184.8125 746.515625 184.8125 C 747.316406 185.582031 748.585938 185.582031 749.386719 184.8125 C 749.386719 184.8125 754.855469 179.589844 754.855469 179.589844 C 755.824219 178.664062 755.675781 177.074219 754.554688 176.34375 Z M 754.554688 176.34375 " fill-opacity="1" fill-rule="nonzero"/><path fill="#b5d5c5" d="M 774.375 162.640625 C 774.375 160.683594 766.28125 153.253906 763.175781 154.234375 C 760.074219 155.21875 748.484375 168.609375 750.214844 171.9375 C 751.945312 175.265625 757.753906 181.402344 760.246094 181.417969 C 762.738281 181.433594 774.375 164.59375 774.375 162.640625 Z M 774.375 162.640625 " fill-opacity="1" fill-rule="nonzero"/><path stroke-linecap="round" transform="matrix(1.039795, 0, 0, 1.039795, 733.610656, 172.036111)" fill="none" stroke-linejoin="round" d="M 11.618401 -0.0948366 C 9.95416 3.105916 4.36787 9.004016 1.971063 9.0228 C -0.429502 9.037827 -11.617108 -7.15753 -11.617108 -9.039662 " stroke="#313131" stroke-width="2" stroke-opacity="1" stroke-miterlimit="4"/><path stroke-linecap="round" transform="matrix(1.039795, 0, 0, 1.039795, 762.294471, 172.036111)" fill="none" stroke-linejoin="round" d="M -11.61732 -0.0948366 C -9.956836 3.105916 -4.36679 9.004016 -1.969982 9.0228 C 0.426825 9.037827 11.618189 -7.15753 11.618189 -9.039662 " stroke="#313131" stroke-width="2" stroke-opacity="1" stroke-miterlimit="4"/><path fill="#b08bbb" d="M 755.328125 208.960938 C 752.898438 209.199219 750.441406 209.328125 747.945312 209.328125 C 745.453125 209.328125 742.988281 209.203125 740.566406 208.953125 C 740.566406 208.953125 747.945312 172.34375 747.945312 172.34375 C 747.945312 172.34375 755.328125 208.960938 755.328125 208.960938 Z M 755.328125 208.960938 " fill-opacity="1" fill-rule="nonzero"/><path fill="#f5a989" d="M 776.546875 119.214844 C 776.546875 100.320312 770.738281 82.925781 747.953125 82.925781 C 725.164062 82.925781 719.355469 100.320312 719.355469 119.214844 C 719.355469 138.105469 734.429688 153.421875 747.953125 153.421875 C 761.476562 153.421875 776.546875 138.105469 776.546875 119.214844 Z M 776.546875 119.214844 " fill-opacity="1" fill-rule="nonzero"/><path stroke-linecap="round" transform="matrix(1.039795, 0, 0, 1.039795, 746.970975, 128.254526)" fill="none" stroke-linejoin="round" d="M 0.790534 -4.824265 C 0.790534 -4.824265 -1.230598 2.133239 -1.230598 2.133239 C -1.230598 2.133239 1.230074 4.823074 1.230074 4.823074 " stroke="#313131" stroke-width="2" stroke-opacity="1" stroke-miterlimit="4"/><path stroke-linecap="round" transform="matrix(1.039795, 0, 0, 1.039795, 747.952527, 139.565403)" fill="none" stroke-linejoin="round" d="M -8.45963 -1.422844 C -8.45963 -1.422844 -5.480526 1.424773 -0.00318186 1.424773 C 5.474162 1.424773 8.46078 -1.422844 8.46078 -1.422844 " stroke="#313131" stroke-width="2" stroke-opacity="1" stroke-miterlimit="4"/><path fill="#f5a989" d="M 713.925781 112.320312 C 710.992188 114.425781 710.480469 120.78125 712.855469 125.09375 C 715.230469 129.410156 718.332031 130.738281 721.050781 129.351562 C 723.769531 127.960938 724.496094 122.414062 723.054688 117.457031 C 721.609375 112.503906 716.859375 110.210938 713.925781 112.320312 Z M 713.925781 112.320312 " fill-opacity="1" fill-rule="nonzero"/><path fill="#f5a989" d="M 781.980469 112.320312 C 784.910156 114.425781 785.421875 120.78125 783.050781 125.09375 C 780.675781 129.410156 777.574219 130.738281 774.851562 129.351562 C 772.132812 127.960938 771.40625 122.414062 772.851562 117.457031 C 774.292969 112.503906 779.042969 110.210938 781.980469 112.320312 Z M 781.980469 112.320312 " fill-opacity="1" fill-rule="nonzero"/><path stroke-linecap="round" transform="matrix(1.039795, 0, 0, 1.039795, 717.329561, 120.815829)" fill="none" stroke-linejoin="miter" d="M -2.942917 -2.324874 C -2.942917 -2.324874 -2.796404 -5.998977 -0.647542 -5.728491 C 1.50132 -5.461762 2.354102 -2.493928 2.647129 0.372473 C 2.943912 3.235118 2.207589 6.000087 2.207589 6.000087 " stroke="#313131" stroke-width="2" stroke-opacity="1" stroke-miterlimit="10"/><path stroke-linecap="round" transform="matrix(1.039795, 0, 0, 1.039795, 718.405745, 121.754764)" fill="none" stroke-linejoin="miter" d="M -1.682539 -0.263798 C -1.682539 -0.263798 -1.231729 -0.985094 -0.161054 -0.774716 C 0.90962 -0.564338 1.683511 0.983444 1.683511 0.983444 " stroke="#313131" stroke-width="2" stroke-opacity="1" stroke-miterlimit="10"/><path stroke-linecap="round" transform="matrix(1.039795, 0, 0, 1.039795, 778.574486, 120.815829)" fill="none" stroke-linejoin="miter" d="M 2.945037 -2.324874 C 2.945037 -2.324874 2.798523 -5.998977 0.649661 -5.728491 C -1.499201 -5.461762 -2.35574 -2.493928 -2.648767 0.372473 C -2.94555 3.235118 -2.209227 6.000087 -2.209227 6.000087 " stroke="#313131" stroke-width="2" stroke-opacity="1" stroke-miterlimit="10"/><path stroke-linecap="round" transform="matrix(1.039795, 0, 0, 1.039795, 777.498302, 121.754764)" fill="none" stroke-linejoin="miter" d="M 1.684658 -0.263798 C 1.684658 -0.263798 1.230091 -0.985094 0.163174 -0.774716 C -0.907501 -0.564338 -1.685148 0.983444 -1.685148 0.983444 " stroke="#313131" stroke-width="2" stroke-opacity="1" stroke-miterlimit="10"/><path fill="#313131" d="M 744.003906 113.109375 C 744.199219 111.953125 740.792969 108.703125 736.042969 107.902344 C 731.296875 107.097656 727.011719 109.046875 726.816406 110.203125 C 726.617188 111.359375 730.53125 111.640625 735.277344 112.441406 C 740.023438 113.246094 743.808594 114.265625 744.003906 113.109375 Z M 744.003906 113.109375 " fill-opacity="1" fill-rule="nonzero"/><path fill="#313131" d="M 751.898438 113.109375 C 751.703125 111.953125 755.113281 108.703125 759.859375 107.902344 C 764.605469 107.097656 768.894531 109.046875 769.089844 110.203125 C 769.285156 111.359375 765.375 111.640625 760.628906 112.441406 C 755.882812 113.246094 752.09375 114.265625 751.898438 113.109375 Z M 751.898438 113.109375 " fill-opacity="1" fill-rule="nonzero"/><path fill="#f6efe3" d="M 744.652344 120.164062 C 744.652344 120.164062 741.214844 114.804688 736.148438 114.09375 C 731.082031 113.378906 726.300781 117.585938 726.300781 117.585938 C 726.300781 117.585938 729.738281 122.945312 734.804688 123.65625 C 739.871094 124.367188 744.652344 120.164062 744.652344 120.164062 Z M 744.652344 120.164062 " fill-opacity="1" fill-rule="nonzero"/><path fill="#313131" d="M 739.351562 118.875 C 739.351562 116.734375 737.617188 114.996094 735.476562 114.996094 C 733.332031 114.996094 731.597656 116.734375 731.597656 118.875 C 731.597656 121.015625 733.332031 122.753906 735.476562 122.753906 C 737.617188 122.753906 739.351562 121.015625 739.351562 118.875 Z M 739.351562 118.875 " fill-opacity="1" fill-rule="nonzero"/><path fill="#f6efe3" d="M 751.386719 120.164062 C 751.386719 120.164062 754.820312 114.804688 759.886719 114.09375 C 764.957031 113.378906 769.734375 117.585938 769.734375 117.585938 C 769.734375 117.585938 766.300781 122.945312 761.230469 123.65625 C 756.164062 124.367188 751.386719 120.164062 751.386719 120.164062 Z M 751.386719 120.164062 " fill-opacity="1" fill-rule="nonzero"/><path fill="#313131" d="M 764.4375 118.875 C 764.4375 116.734375 762.703125 114.996094 760.558594 114.996094 C 758.417969 114.996094 756.679688 116.734375 756.679688 118.875 C 756.679688 121.015625 758.417969 122.753906 760.558594 122.753906 C 762.703125 122.753906 764.4375 121.015625 764.4375 118.875 Z M 764.4375 118.875 " fill-opacity="1" fill-rule="nonzero"/><path fill="#313131" d="M 720.085938 121.199219 C 723.78125 120.910156 727.066406 99.875 727.066406 99.875 C 727.066406 99.875 736.175781 102.257812 746.972656 100.574219 C 757.765625 98.890625 766.183594 94.753906 766.183594 94.753906 C 766.183594 94.753906 770.660156 122.660156 775.746094 121.84375 C 780.835938 121.027344 781.324219 93.425781 781.324219 93.425781 C 781.324219 93.425781 786.230469 87.539062 783.144531 81.507812 C 780.0625 75.480469 758.605469 68.609375 739.15625 74.21875 C 719.707031 79.824219 715.421875 89.636719 714.269531 98.050781 C 713.117188 106.460938 716.386719 121.492188 720.085938 121.199219 Z M 720.085938 121.199219 " fill-opacity="1" fill-rule="nonzero"/><path fill="#b5d5c5" d="M 645.777344 250.824219 C 645.777344 204.832031 608.492188 167.546875 562.5 167.546875 C 516.507812 167.546875 479.222656 204.832031 479.222656 250.824219 C 479.222656 296.816406 516.507812 334.101562 562.5 334.101562 C 608.492188 334.101562 645.777344 296.816406 645.777344 250.824219 Z M 645.777344 250.824219 " fill-opacity="1" fill-rule="nonzero"/><path fill="#f6efe3" d="M 562.5 323.703125 C 522.316406 323.703125 489.621094 291.007812 489.621094 250.824219 C 489.621094 210.636719 522.316406 177.945312 562.5 177.945312 C 602.683594 177.945312 635.378906 210.636719 635.378906 250.824219 C 635.378906 291.007812 602.683594 323.703125 562.5 323.703125 Z M 562.5 323.703125 " fill-opacity="1" fill-rule="nonzero"/><path fill="#313131" d="M 593.796875 288.789062 C 593.796875 288.789062 531.203125 288.789062 531.203125 288.789062 C 531.203125 288.789062 531.203125 231.484375 531.203125 231.484375 C 531.203125 231.484375 593.796875 231.484375 593.796875 231.484375 C 593.796875 231.484375 593.796875 288.789062 593.796875 288.789062 Z M 593.796875 288.789062 " fill-opacity="1" fill-rule="nonzero"/><path fill="#b08bbb" d="M 619.773438 295.847656 C 606.421875 312.796875 585.707031 323.703125 562.511719 323.703125 C 539.292969 323.703125 518.578125 312.796875 505.226562 295.835938 C 506.226562 285.28125 515.117188 277.015625 525.921875 277.015625 C 525.921875 277.015625 599.078125 277.015625 599.078125 277.015625 C 609.894531 277.015625 618.792969 285.28125 619.773438 295.847656 Z M 619.773438 295.847656 " fill-opacity="1" fill-rule="nonzero"/><path fill="#f5a989" d="M 577.726562 252.574219 C 577.726562 252.574219 547.273438 252.574219 547.273438 252.574219 C 547.273438 252.574219 547.273438 277.019531 547.273438 277.019531 C 547.273438 277.019531 550.976562 286.316406 562.5 286.316406 C 574.023438 286.316406 577.726562 277.019531 577.726562 277.019531 C 577.726562 277.019531 577.726562 252.574219 577.726562 252.574219 Z M 577.726562 252.574219 " fill-opacity="1" fill-rule="nonzero"/><path fill="#313131" d="M 577.726562 252.574219 C 577.726562 252.574219 547.273438 252.574219 547.273438 252.574219 C 547.273438 252.574219 547.273438 264.226562 547.273438 264.226562 C 547.273438 264.226562 552.585938 273.898438 562.5 273.898438 C 572.414062 273.898438 577.726562 264.226562 577.726562 264.226562 C 577.726562 264.226562 577.726562 252.574219 577.726562 252.574219 Z M 577.726562 252.574219 " fill-opacity="1" fill-rule="nonzero"/><path stroke-linecap="round" transform="matrix(1.039795, 0, 0, 1.039795, 1.010916, 0.00002)" fill="none" stroke-linejoin="miter" d="M 504.803008 301.81741 C 504.803008 301.81741 504.803008 281.861546 504.803008 281.861546 " stroke="#313131" stroke-width="2" stroke-opacity="1" stroke-miterlimit="10"/><path stroke-linecap="round" transform="matrix(1.039795, 0, 0, 1.039795, 1.010916, 0.00002)" fill="none" stroke-linejoin="miter" d="M 575.197021 301.81741 C 575.197021 301.81741 575.197021 281.861546 575.197021 281.861546 " stroke="#313131" stroke-width="2" stroke-opacity="1" stroke-miterlimit="10"/><path fill="#f5a989" d="M 590.292969 277.015625 C 590.292969 286.0625 577.847656 293.382812 562.5 293.382812 C 547.152344 293.382812 534.707031 286.0625 534.707031 277.015625 C 534.707031 277.015625 590.292969 277.015625 590.292969 277.015625 Z M 590.292969 277.015625 " fill-opacity="1" fill-rule="nonzero"/><path fill="#f5a989" d="M 591.09375 233.59375 C 591.09375 214.699219 585.289062 197.304688 562.5 197.304688 C 539.714844 197.304688 533.90625 214.699219 533.90625 233.59375 C 533.90625 252.484375 548.976562 267.800781 562.5 267.800781 C 576.023438 267.800781 591.09375 252.484375 591.09375 233.59375 Z M 591.09375 233.59375 " fill-opacity="1" fill-rule="nonzero"/><path fill="#f5a989" d="M 528.476562 226.695312 C 525.539062 228.804688 525.027344 235.160156 527.402344 239.472656 C 529.777344 243.789062 532.878906 245.117188 535.601562 243.726562 C 538.320312 242.335938 539.046875 236.792969 537.601562 231.835938 C 536.15625 226.882812 531.410156 224.589844 528.476562 226.695312 Z M 528.476562 226.695312 " fill-opacity="1" fill-rule="nonzero"/><path fill="#f5a989" d="M 596.527344 226.695312 C 599.460938 228.804688 599.972656 235.160156 597.597656 239.472656 C 595.222656 243.789062 592.121094 245.117188 589.402344 243.726562 C 586.683594 242.335938 585.957031 236.792969 587.398438 231.835938 C 588.84375 226.882812 593.59375 224.589844 596.527344 226.695312 Z M 596.527344 226.695312 " fill-opacity="1" fill-rule="nonzero"/><path stroke-linecap="round" transform="matrix(1.039795, 0, 0, 1.039795, 531.877994, 235.19324)" fill="none" stroke-linejoin="miter" d="M -2.944416 -2.327193 C -2.944416 -2.327193 -2.797903 -6.001296 -0.649041 -5.73081 C 1.499821 -5.460324 2.356361 -2.496247 2.649387 0.370155 C 2.942414 3.236556 2.209847 6.001525 2.209847 6.001525 " stroke="#313131" stroke-width="2" stroke-opacity="1" stroke-miterlimit="10"/><path stroke-linecap="round" transform="matrix(1.039795, 0, 0, 1.039795, 532.955258, 236.132161)" fill="none" stroke-linejoin="miter" d="M -1.685076 -0.262346 C -1.685076 -0.262346 -1.230509 -0.983642 -0.163592 -0.773264 C 0.907082 -0.566643 1.68473 0.984896 1.68473 0.984896 " stroke="#313131" stroke-width="2" stroke-opacity="1" stroke-miterlimit="10"/><path stroke-linecap="round" transform="matrix(1.039795, 0, 0, 1.039795, 593.124047, 235.19324)" fill="none" stroke-linejoin="miter" d="M 2.942453 -2.327193 C 2.942453 -2.327193 2.799697 -6.001296 0.647078 -5.73081 C -1.501784 -5.460324 -2.354567 -2.496247 -2.647593 0.370155 C -2.944377 3.236556 -2.208053 6.001525 -2.208053 6.001525 " stroke="#313131" stroke-width="2" stroke-opacity="1" stroke-miterlimit="10"/><path stroke-linecap="round" transform="matrix(1.039795, 0, 0, 1.039795, 592.046807, 236.132161)" fill="none" stroke-linejoin="miter" d="M 1.68309 -0.262346 C 1.68309 -0.262346 1.23228 -0.983642 0.161606 -0.773264 C -0.909069 -0.566643 -1.682959 0.984896 -1.682959 0.984896 " stroke="#313131" stroke-width="2" stroke-opacity="1" stroke-miterlimit="10"/><path stroke-linecap="round" transform="matrix(1.039795, 0, 0, 1.039795, 561.752377, 243.586457)" fill="none" stroke-linejoin="round" d="M 0.568741 -5.744573 C 0.568741 -5.744573 -1.456149 5.743573 -1.456149 5.743573 C -1.456149 5.743573 1.459091 3.718684 1.459091 3.718684 " stroke="#313131" stroke-width="2" stroke-opacity="1" stroke-miterlimit="4"/><path stroke-linecap="round" transform="matrix(1.039795, 0, 0, 1.039795, 562.501033, 253.311658)" fill="none" stroke-linejoin="round" d="M -8.457441 -0.818162 C -8.457441 -0.818162 -5.478337 0.816025 -0.000993045 0.816025 C 5.476351 0.816025 8.459212 -0.818162 8.459212 -0.818162 " stroke="#313131" stroke-width="2" stroke-opacity="1" stroke-miterlimit="4"/><path fill="#313131" d="M 558.554688 227.488281 C 558.75 226.332031 555.339844 223.082031 550.59375 222.277344 C 545.847656 221.476562 541.558594 223.425781 541.363281 224.582031 C 541.167969 225.738281 545.078125 226.015625 549.824219 226.820312 C 554.574219 227.621094 558.359375 228.644531 558.554688 227.488281 Z M 558.554688 227.488281 " fill-opacity="1" fill-rule="nonzero"/><path fill="#313131" d="M 566.449219 227.488281 C 566.253906 226.332031 569.660156 223.082031 574.410156 222.277344 C 579.15625 221.476562 583.445312 223.425781 583.640625 224.582031 C 583.835938 225.738281 579.925781 226.015625 575.175781 226.820312 C 570.429688 227.621094 566.644531 228.644531 566.449219 227.488281 Z M 566.449219 227.488281 " fill-opacity="1" fill-rule="nonzero"/><path fill="#f6efe3" d="M 559.179688 234.550781 C 559.179688 234.550781 555.742188 229.191406 550.675781 228.480469 C 545.609375 227.769531 540.828125 231.972656 540.828125 231.972656 C 540.828125 231.972656 544.261719 237.332031 549.332031 238.046875 C 554.398438 238.757812 559.179688 234.550781 559.179688 234.550781 Z M 559.179688 234.550781 " fill-opacity="1" fill-rule="nonzero"/><path fill="#313131" d="M 553.878906 233.261719 C 553.878906 231.121094 552.144531 229.386719 550 229.386719 C 547.859375 229.386719 546.125 231.121094 546.125 233.261719 C 546.125 235.40625 547.859375 237.140625 550 237.140625 C 552.144531 237.140625 553.878906 235.40625 553.878906 233.261719 Z M 553.878906 233.261719 " fill-opacity="1" fill-rule="nonzero"/><path fill="#f6efe3" d="M 565.910156 234.550781 C 565.910156 234.550781 569.347656 229.191406 574.414062 228.480469 C 579.480469 227.769531 584.261719 231.972656 584.261719 231.972656 C 584.261719 231.972656 580.828125 237.332031 575.757812 238.046875 C 570.691406 238.757812 565.910156 234.550781 565.910156 234.550781 Z M 565.910156 234.550781 " fill-opacity="1" fill-rule="nonzero"/><path fill="#313131" d="M 578.964844 233.261719 C 578.964844 231.121094 577.230469 229.386719 575.085938 229.386719 C 572.945312 229.386719 571.207031 231.121094 571.207031 233.261719 C 571.207031 235.40625 572.945312 237.140625 575.085938 237.140625 C 577.230469 237.140625 578.964844 235.40625 578.964844 233.261719 Z M 578.964844 233.261719 " fill-opacity="1" fill-rule="nonzero"/><path fill="#313131" d="M 531.160156 232.550781 C 533.550781 233.832031 544.148438 231.632812 553.351562 225.914062 C 562.550781 220.199219 565.960938 209.265625 565.960938 209.265625 C 565.960938 209.265625 566.300781 224.402344 576.59375 231.132812 C 586.882812 237.863281 596.582031 234.742188 595.476562 221.566406 C 594.375 208.386719 583.539062 193.140625 563.546875 193.140625 C 543.558594 193.140625 535.414062 205.6875 532.046875 213.46875 C 528.683594 221.25 528.773438 231.273438 531.160156 232.550781 Z M 531.160156 232.550781 " fill-opacity="1" fill-rule="nonzero"/><path fill="#313131" d="M 460.324219 136.445312 C 460.324219 90.453125 423.042969 53.171875 377.046875 53.171875 C 331.054688 53.171875 293.769531 90.453125 293.769531 136.445312 C 293.769531 182.4375 331.054688 219.722656 377.046875 219.722656 C 423.042969 219.722656 460.324219 182.4375 460.324219 136.445312 Z M 460.324219 136.445312 " fill-opacity="1" fill-rule="nonzero"/><path fill="#f6efe3" d="M 377.046875 209.324219 C 336.863281 209.324219 304.167969 176.632812 304.167969 136.445312 C 304.167969 96.261719 336.863281 63.566406 377.046875 63.566406 C 417.234375 63.566406 449.925781 96.261719 449.925781 136.445312 C 449.925781 176.632812 417.234375 209.324219 377.046875 209.324219 Z M 377.046875 209.324219 " fill-opacity="1" fill-rule="nonzero"/><path fill="#b5d5c5" d="M 434.324219 181.46875 C 420.964844 198.417969 400.261719 209.324219 377.050781 209.324219 C 353.835938 209.324219 333.121094 198.417969 319.769531 181.457031 C 320.769531 170.90625 329.660156 162.636719 340.472656 162.636719 C 340.472656 162.636719 413.621094 162.636719 413.621094 162.636719 C 424.445312 162.636719 433.335938 170.90625 434.324219 181.46875 Z M 434.324219 181.46875 " fill-opacity="1" fill-rule="nonzero"/><path fill="#f5a989" d="M 392.273438 138.195312 C 392.273438 138.195312 361.824219 138.195312 361.824219 138.195312 C 361.824219 138.195312 361.824219 162.640625 361.824219 162.640625 C 361.824219 162.640625 365.523438 171.9375 377.050781 171.9375 C 388.574219 171.9375 392.273438 162.640625 392.273438 162.640625 C 392.273438 162.640625 392.273438 138.195312 392.273438 138.195312 Z M 392.273438 138.195312 " fill-opacity="1" fill-rule="nonzero"/><path fill="#313131" d="M 392.273438 138.195312 C 392.273438 138.195312 361.824219 138.195312 361.824219 138.195312 C 361.824219 138.195312 361.824219 149.847656 361.824219 149.847656 C 361.824219 149.847656 367.136719 159.519531 377.050781 159.519531 C 386.960938 159.519531 392.273438 149.847656 392.273438 149.847656 C 392.273438 149.847656 392.273438 138.195312 392.273438 138.195312 Z M 392.273438 138.195312 " fill-opacity="1" fill-rule="nonzero"/><path fill="#313131" d="M 352.875 162.640625 C 352.875 160.140625 358.15625 155.066406 360.414062 155.066406 C 362.675781 155.066406 374.570312 171.78125 374.570312 171.78125 C 374.570312 171.78125 368.546875 183.132812 364.761719 183.132812 C 360.976562 183.132812 352.875 165.136719 352.875 162.640625 Z M 352.875 162.640625 " fill-opacity="1" fill-rule="nonzero"/><path fill="#313131" d="M 401.21875 162.640625 C 401.21875 160.140625 395.941406 155.066406 393.679688 155.066406 C 391.417969 155.066406 379.527344 171.78125 379.527344 171.78125 C 379.527344 171.78125 385.550781 183.132812 389.335938 183.132812 C 393.121094 183.132812 401.21875 165.136719 401.21875 162.640625 Z M 401.21875 162.640625 " fill-opacity="1" fill-rule="nonzero"/><path fill="#313131" d="M 386.332031 191.652344 C 386.332031 190.082031 385.058594 188.8125 383.492188 188.8125 C 381.925781 188.8125 380.652344 190.082031 380.652344 191.652344 C 380.652344 193.21875 381.925781 194.488281 383.492188 194.488281 C 385.058594 194.488281 386.332031 193.21875 386.332031 191.652344 Z M 386.332031 191.652344 " fill-opacity="1" fill-rule="nonzero"/><path stroke-linecap="round" transform="matrix(1.039795, 0, 0, 1.039795, 1.010916, 0.00002)" fill="none" stroke-linejoin="miter" d="M 361.644472 165.357163 C 361.644472 165.357163 361.644472 192.706315 361.644472 192.706315 " stroke="#313131" stroke-width="2" stroke-opacity="1" stroke-miterlimit="10"/><path stroke-linecap="round" transform="matrix(1.039795, 0, 0, 1.039795, 1.010916, 0.00002)" fill="none" stroke-linejoin="miter" d="M 326.447465 191.815965 C 326.447465 191.815965 326.447465 171.8601 326.447465 171.8601 " stroke="#313131" stroke-width="2" stroke-opacity="1" stroke-miterlimit="10"/><path stroke-linecap="round" transform="matrix(1.039795, 0, 0, 1.039795, 1.010916, 0.00002)" fill="none" stroke-linejoin="miter" d="M 396.841478 191.815965 C 396.841478 191.815965 396.841478 171.8601 396.841478 171.8601 " stroke="#313131" stroke-width="2" stroke-opacity="1" stroke-miterlimit="10"/><path fill="#f5a989" d="M 405.644531 119.214844 C 405.644531 100.320312 399.835938 82.925781 377.046875 82.925781 C 354.261719 82.925781 348.453125 100.320312 348.453125 119.214844 C 348.453125 138.105469 363.523438 153.421875 377.046875 153.421875 C 390.570312 153.421875 405.644531 138.105469 405.644531 119.214844 Z M 405.644531 119.214844 " fill-opacity="1" fill-rule="nonzero"/><path fill="#f5a989" d="M 343.023438 112.320312 C 340.089844 114.425781 339.574219 120.78125 341.949219 125.09375 C 344.324219 129.410156 347.429688 130.738281 350.148438 129.351562 C 352.867188 127.960938 353.59375 122.414062 352.152344 117.457031 C 350.707031 112.503906 345.957031 110.210938 343.023438 112.320312 Z M 343.023438 112.320312 " fill-opacity="1" fill-rule="nonzero"/><path fill="#f5a989" d="M 411.074219 112.320312 C 414.011719 114.425781 414.523438 120.78125 412.148438 125.09375 C 409.773438 129.410156 406.667969 130.738281 403.949219 129.351562 C 401.230469 127.960938 400.503906 122.414062 401.945312 117.457031 C 403.390625 112.503906 408.140625 110.210938 411.074219 112.320312 Z M 411.074219 112.320312 " fill-opacity="1" fill-rule="nonzero"/><path stroke-linecap="round" transform="matrix(1.039795, 0, 0, 1.039795, 346.425487, 120.815829)" fill="none" stroke-linejoin="miter" d="M -2.94501 -2.324874 C -2.94501 -2.324874 -2.798497 -5.998977 -0.649635 -5.728491 C 1.499227 -5.461762 2.355767 -2.493928 2.648793 0.372473 C 2.945577 3.235118 2.209253 6.000087 2.209253 6.000087 " stroke="#313131" stroke-width="2" stroke-opacity="1" stroke-miterlimit="10"/><path stroke-linecap="round" transform="matrix(1.039795, 0, 0, 1.039795, 347.502703, 121.754764)" fill="none" stroke-linejoin="miter" d="M -1.681867 -0.263798 C -1.681867 -0.263798 -1.231057 -0.985094 -0.160383 -0.774716 C 0.906535 -0.564338 1.684182 0.983444 1.684182 0.983444 " stroke="#313131" stroke-width="2" stroke-opacity="1" stroke-miterlimit="10"/><path stroke-linecap="round" transform="matrix(1.039795, 0, 0, 1.039795, 407.670416, 120.815829)" fill="none" stroke-linejoin="miter" d="M 2.942939 -2.324874 C 2.942939 -2.324874 2.796426 -5.998977 0.647564 -5.728491 C -1.501298 -5.461762 -2.35408 -2.493928 -2.650864 0.372473 C -2.94389 3.235118 -2.207567 6.000087 -2.207567 6.000087 " stroke="#313131" stroke-width="2" stroke-opacity="1" stroke-miterlimit="10"/><path stroke-linecap="round" transform="matrix(1.039795, 0, 0, 1.039795, 406.594232, 121.754764)" fill="none" stroke-linejoin="miter" d="M 1.682561 -0.263798 C 1.682561 -0.263798 1.231751 -0.985094 0.161076 -0.774716 C -0.909598 -0.564338 -1.683489 0.983444 -1.683489 0.983444 " stroke="#313131" stroke-width="2" stroke-opacity="1" stroke-miterlimit="10"/><path stroke-linecap="round" transform="matrix(1.039795, 0, 0, 1.039795, 377.048453, 128.630932)" fill="none" stroke-linejoin="round" d="M -0.151788 -5.186265 C -0.151788 -5.186265 -2.176677 5.186126 -2.176677 5.186126 C -2.176677 5.186126 2.173642 4.276992 2.173642 4.276992 " stroke="#313131" stroke-width="2" stroke-opacity="1" stroke-miterlimit="4"/><path stroke-linecap="round" transform="matrix(1.039795, 0, 0, 1.039795, 377.048453, 139.565403)" fill="none" stroke-linejoin="round" d="M -8.461722 -1.422844 C -8.461722 -1.422844 -5.478862 1.424773 -0.0015177 1.424773 C 5.475826 1.424773 8.458687 -1.422844 8.458687 -1.422844 " stroke="#313131" stroke-width="2" stroke-opacity="1" stroke-miterlimit="4"/><path fill="#313131" d="M 340.449219 109.265625 C 341.171875 111.535156 347.449219 118.519531 351.09375 116.628906 C 354.738281 114.734375 363.722656 93.121094 363.722656 93.121094 C 363.722656 93.121094 370.617188 89.535156 376.433594 96.195312 C 382.25 102.851562 383.128906 113.050781 387.683594 113.261719 C 392.242188 113.472656 396.796875 109.757812 396.796875 109.757812 C 396.796875 109.757812 399.214844 117.292969 403.738281 117.539062 C 408.257812 117.785156 415.140625 108.671875 413.644531 103.832031 C 412.148438 98.996094 402.75 76.390625 382.285156 74.5 C 361.820312 72.605469 358.417969 84.910156 358.417969 84.910156 C 358.417969 84.910156 351.050781 84.804688 345.75 92.058594 C 340.449219 99.3125 339.726562 106.996094 340.449219 109.265625 Z M 340.449219 109.265625 " fill-opacity="1" fill-rule="nonzero"/><path fill="#313131" d="M 373.101562 113.109375 C 373.296875 111.953125 369.886719 108.703125 365.140625 107.902344 C 360.394531 107.097656 356.105469 109.046875 355.910156 110.203125 C 355.714844 111.359375 359.625 111.640625 364.375 112.441406 C 369.121094 113.246094 372.90625 114.265625 373.101562 113.109375 Z M 373.101562 113.109375 " fill-opacity="1" fill-rule="nonzero"/><path fill="#313131" d="M 380.996094 113.109375 C 380.800781 111.953125 384.207031 108.703125 388.957031 107.902344 C 393.703125 107.097656 397.988281 109.046875 398.183594 110.203125 C 398.382812 111.359375 394.46875 111.640625 389.722656 112.441406 C 384.976562 113.246094 381.191406 114.265625 380.996094 113.109375 Z M 380.996094 113.109375 " fill-opacity="1" fill-rule="nonzero"/><path fill="#f6efe3" d="M 373.574219 120.359375 C 373.574219 120.359375 370.140625 115 365.070312 114.289062 C 360.003906 113.578125 355.222656 117.78125 355.222656 117.78125 C 355.222656 117.78125 358.660156 123.140625 363.726562 123.851562 C 368.792969 124.566406 373.574219 120.359375 373.574219 120.359375 Z M 373.574219 120.359375 " fill-opacity="1" fill-rule="nonzero"/><path fill="#313131" d="M 368.277344 119.070312 C 368.277344 116.929688 366.539062 115.191406 364.398438 115.191406 C 362.257812 115.191406 360.519531 116.929688 360.519531 119.070312 C 360.519531 121.214844 362.257812 122.949219 364.398438 122.949219 C 366.539062 122.949219 368.277344 121.214844 368.277344 119.070312 Z M 368.277344 119.070312 " fill-opacity="1" fill-rule="nonzero"/><path fill="#f6efe3" d="M 380.308594 120.359375 C 380.308594 120.359375 383.742188 115 388.8125 114.289062 C 393.878906 113.578125 398.660156 117.78125 398.660156 117.78125 C 398.660156 117.78125 395.222656 123.140625 390.15625 123.851562 C 385.089844 124.566406 380.308594 120.359375 380.308594 120.359375 Z M 380.308594 120.359375 " fill-opacity="1" fill-rule="nonzero"/><path fill="#313131" d="M 393.363281 119.070312 C 393.363281 116.929688 391.625 115.191406 389.484375 115.191406 C 387.339844 115.191406 385.605469 116.929688 385.605469 119.070312 C 385.605469 121.214844 387.339844 122.949219 389.484375 122.949219 C 391.625 122.949219 393.363281 121.214844 393.363281 119.070312 Z M 393.363281 119.070312 " fill-opacity="1" fill-rule="nonzero"/><path fill="#b08bbb" d="M 274.875 271.621094 C 274.875 225.628906 237.589844 188.34375 191.597656 188.34375 C 145.605469 188.34375 108.320312 225.628906 108.320312 271.621094 C 108.320312 317.613281 145.605469 354.898438 191.597656 354.898438 C 237.589844 354.898438 274.875 317.613281 274.875 271.621094 Z M 274.875 271.621094 " fill-opacity="1" fill-rule="nonzero"/><path fill="#f6efe3" d="M 191.597656 344.5 C 151.410156 344.5 118.71875 311.804688 118.71875 271.621094 C 118.71875 231.433594 151.410156 198.738281 191.597656 198.738281 C 231.78125 198.738281 264.476562 231.433594 264.476562 271.621094 C 264.476562 311.804688 231.78125 344.5 191.597656 344.5 Z M 191.597656 344.5 " fill-opacity="1" fill-rule="nonzero"/><path fill="#b5d5c5" d="M 248.875 316.640625 C 235.511719 333.589844 214.808594 344.5 191.601562 344.5 C 168.382812 344.5 147.671875 333.589844 134.320312 316.632812 C 135.316406 306.078125 144.207031 297.8125 155.023438 297.8125 C 155.023438 297.8125 228.171875 297.8125 228.171875 297.8125 C 238.996094 297.8125 247.886719 306.078125 248.875 316.640625 Z M 248.875 316.640625 " fill-opacity="1" fill-rule="nonzero"/><path fill="#b08bbb" d="M 191.597656 321.804688 C 171.324219 321.804688 147.917969 305.894531 147.632812 299.164062 C 147.351562 292.433594 154.710938 282.128906 153.660156 267.621094 C 152.609375 253.109375 150.03125 231.710938 163.824219 215.902344 C 177.613281 200.089844 208.984375 203.96875 220.191406 216.9375 C 231.398438 229.90625 232.941406 255 231.050781 270.773438 C 229.15625 286.546875 235.980469 291.597656 234.988281 298.953125 C 233.992188 306.3125 211.867188 321.804688 191.597656 321.804688 Z M 191.597656 321.804688 " fill-opacity="1" fill-rule="nonzero"/><path fill="#f5a989" d="M 220.191406 254.386719 C 220.191406 235.496094 214.386719 227.03125 191.597656 227.03125 C 168.808594 227.03125 163.003906 235.496094 163.003906 254.386719 C 163.003906 273.28125 178.074219 288.597656 191.597656 288.597656 C 205.121094 288.597656 220.191406 273.28125 220.191406 254.386719 Z M 220.191406 254.386719 " fill-opacity="1" fill-rule="nonzero"/><path fill="#f5a989" d="M 220.1875 254.390625 C 220.1875 273.28125 205.121094 288.597656 191.59375 288.597656 C 178.078125 288.597656 163 273.28125 163 254.390625 C 163 238.742188 166.992188 230.246094 181.3125 227.792969 C 184.273438 227.28125 187.683594 227.03125 191.59375 227.03125 C 205.082031 227.03125 212.621094 229.996094 216.519531 236.328125 C 219.222656 240.707031 220.1875 246.675781 220.1875 254.390625 Z M 220.1875 254.390625 " fill-opacity="1" fill-rule="nonzero"/><path stroke-linecap="round" transform="matrix(1.039795, 0, 0, 1.039795, 190.792159, 264.306422)" fill="none" stroke-linejoin="round" d="M 0.774669 -3.593123 C 0.774669 -3.593123 -2.948272 -1.068586 -1.396733 1.260601 C 0.158562 3.589787 2.949829 1.564897 2.949829 1.564897 " stroke="#313131" stroke-width="2" stroke-opacity="1" stroke-miterlimit="4"/><path stroke-linecap="round" transform="matrix(1.039795, 0, 0, 1.039795, 191.597983, 274.738689)" fill="none" stroke-linejoin="round" d="M -8.460519 -1.424201 C -8.460519 -1.424201 -5.477658 1.423417 -0.000314458 1.423417 C 5.477029 1.423417 8.45989 -1.424201 8.45989 -1.424201 " stroke="#313131" stroke-width="2" stroke-opacity="1" stroke-miterlimit="4"/><path stroke-linecap="round" transform="matrix(1.039795, 0, 0, 1.039795, 1.010916, 0.00002)" fill="none" stroke-linejoin="miter" d="M 148.09568 321.8146 C 148.09568 321.8146 148.09568 301.862491 148.09568 301.862491 " stroke="#313131" stroke-width="2" stroke-opacity="1" stroke-miterlimit="10"/><path stroke-linecap="round" transform="matrix(1.039795, 0, 0, 1.039795, 1.010916, 0.00002)" fill="none" stroke-linejoin="miter" d="M 218.489693 321.8146 C 218.489693 321.8146 218.489693 301.862491 218.489693 301.862491 " stroke="#313131" stroke-width="2" stroke-opacity="1" stroke-miterlimit="10"/><path stroke-linecap="round" transform="matrix(1.039795, 0, 0, 1.039795, 176.961836, 287.036343)" fill="none" stroke-linejoin="round" d="M -22.409888 -18.672197 C -22.409888 -18.672197 -19.374432 0.06648 -7.781097 9.371954 C 3.815996 18.673671 22.40816 18.001213 22.40816 18.001213 " stroke="#313131" stroke-width="2" stroke-opacity="1" stroke-miterlimit="4"/><path stroke-linecap="round" transform="matrix(1.039795, 0, 0, 1.039795, 214.214569, 298.363891)" fill="none" stroke-linejoin="round" d="M 16.236945 -16.274835 C 16.236945 -16.274835 15.312784 -5.027121 4.662393 3.868867 C -5.991755 12.768612 -16.236417 16.273661 -16.236417 16.273661 " stroke="#313131" stroke-width="2" stroke-opacity="1" stroke-miterlimit="4"/><path fill="#313131" d="M 187.652344 248.285156 C 187.847656 247.128906 184.4375 243.878906 179.691406 243.074219 C 174.945312 242.273438 170.65625 244.222656 170.460938 245.378906 C 170.265625 246.535156 174.175781 246.8125 178.921875 247.617188 C 183.667969 248.417969 187.457031 249.441406 187.652344 248.285156 Z M 187.652344 248.285156 " fill-opacity="1" fill-rule="nonzero"/><path fill="#313131" d="M 195.546875 248.285156 C 195.351562 247.128906 198.757812 243.878906 203.503906 243.074219 C 208.253906 242.273438 212.539062 244.222656 212.734375 245.378906 C 212.929688 246.535156 209.019531 246.8125 204.273438 247.617188 C 199.527344 248.417969 195.742188 249.441406 195.546875 248.285156 Z M 195.546875 248.285156 " fill-opacity="1" fill-rule="nonzero"/><path fill="#f6efe3" d="M 188.230469 255.402344 C 188.230469 255.402344 184.796875 250.042969 179.726562 249.332031 C 174.660156 248.621094 169.878906 252.824219 169.878906 252.824219 C 169.878906 252.824219 173.316406 258.183594 178.382812 258.894531 C 183.453125 259.609375 188.230469 255.402344 188.230469 255.402344 Z M 188.230469 255.402344 " fill-opacity="1" fill-rule="nonzero"/><path fill="#313131" d="M 182.933594 254.113281 C 182.933594 251.972656 181.195312 250.234375 179.054688 250.234375 C 176.914062 250.234375 175.175781 251.972656 175.175781 254.113281 C 175.175781 256.257812 176.914062 257.992188 179.054688 257.992188 C 181.195312 257.992188 182.933594 256.257812 182.933594 254.113281 Z M 182.933594 254.113281 " fill-opacity="1" fill-rule="nonzero"/><path fill="#f6efe3" d="M 194.964844 255.402344 C 194.964844 255.402344 198.398438 250.042969 203.46875 249.332031 C 208.535156 248.621094 213.316406 252.824219 213.316406 252.824219 C 213.316406 252.824219 209.878906 258.183594 204.8125 258.894531 C 199.746094 259.609375 194.964844 255.402344 194.964844 255.402344 Z M 194.964844 255.402344 " fill-opacity="1" fill-rule="nonzero"/><path fill="#313131" d="M 208.019531 254.113281 C 208.019531 251.972656 206.28125 250.234375 204.140625 250.234375 C 201.996094 250.234375 200.261719 251.972656 200.261719 254.113281 C 200.261719 256.257812 201.996094 257.992188 204.140625 257.992188 C 206.28125 257.992188 208.019531 256.257812 208.019531 254.113281 Z M 208.019531 254.113281 " fill-opacity="1" fill-rule="nonzero"/><path fill="#b08bbb" d="M 808.191406 578.9375 C 808.191406 578.9375 777.613281 595.195312 777.613281 595.195312 C 777.613281 595.195312 778.820312 560.582031 778.820312 560.582031 C 778.820312 560.582031 808.191406 578.9375 808.191406 578.9375 Z M 808.191406 578.9375 " fill-opacity="1" fill-rule="nonzero"/><path fill="#b5d5c5" d="M 747.953125 418.324219 C 747.953125 418.324219 730.636719 448.316406 730.636719 448.316406 C 730.636719 448.316406 765.269531 448.316406 765.269531 448.316406 C 765.269531 448.316406 747.953125 418.324219 747.953125 418.324219 Z M 747.953125 418.324219 " fill-opacity="1" fill-rule="nonzero"/><path fill="#b5d5c5" d="M 562.5 427.683594 C 562.5 427.683594 545.183594 457.675781 545.183594 457.675781 C 545.183594 457.675781 579.816406 457.675781 579.816406 457.675781 C 579.816406 457.675781 562.5 427.683594 562.5 427.683594 Z M 562.5 427.683594 " fill-opacity="1" fill-rule="nonzero"/><path fill="#b08bbb" d="M 377.035156 455.757812 C 377.035156 455.757812 359.71875 485.75 359.71875 485.75 C 359.71875 485.75 394.351562 485.75 394.351562 485.75 C 394.351562 485.75 377.035156 455.757812 377.035156 455.757812 Z M 377.035156 455.757812 " fill-opacity="1" fill-rule="nonzero"/><path fill="#b5d5c5" d="M 360.757812 563.964844 C 360.757812 563.964844 334.226562 586.226562 334.226562 586.226562 C 334.226562 586.226562 366.773438 598.070312 366.773438 598.070312 C 366.773438 598.070312 360.757812 563.964844 360.757812 563.964844 Z M 360.757812 563.964844 " fill-opacity="1" fill-rule="nonzero"/><path fill="#313131" d="M 813.40625 779.847656 C 813.40625 779.847656 311.59375 779.847656 311.59375 779.847656 C 300.109375 779.847656 290.796875 770.535156 290.796875 759.050781 C 290.796875 759.050781 290.796875 428.664062 290.796875 428.664062 C 290.796875 417.179688 300.109375 407.867188 311.59375 407.867188 C 311.59375 407.867188 813.40625 407.867188 813.40625 407.867188 C 824.890625 407.867188 834.203125 417.179688 834.203125 428.664062 C 834.203125 428.664062 834.203125 759.050781 834.203125 759.050781 C 834.203125 770.535156 824.890625 779.847656 813.40625 779.847656 Z M 813.40625 779.847656 " fill-opacity="1" fill-rule="nonzero"/><path fill="#f6efe3" d="M 771.8125 418.265625 C 771.8125 418.265625 311.59375 418.265625 311.59375 418.265625 C 305.851562 418.265625 301.195312 422.921875 301.195312 428.664062 C 301.195312 428.664062 301.195312 759.050781 301.195312 759.050781 C 301.195312 764.792969 305.851562 769.449219 311.59375 769.449219 C 311.59375 769.449219 771.8125 769.449219 771.8125 769.449219 C 777.554688 769.449219 782.210938 764.792969 782.210938 759.050781 C 782.210938 759.050781 782.210938 428.664062 782.210938 428.664062 C 782.210938 422.921875 777.554688 418.265625 771.8125 418.265625 Z M 771.8125 418.265625 " fill-opacity="1" fill-rule="nonzero"/><path stroke-linecap="round" transform="matrix(1.039795, 0, 0, 1.039795, 808.225284, 593.856902)" fill="none" stroke-linejoin="round" d="M 14.983155 -0.00137852 C 14.983155 -8.273746 8.273597 -14.983304 0.00122938 -14.983304 C -8.274895 -14.983304 -14.984453 -8.273746 -14.984453 -0.00137852 C -14.984453 8.274745 -8.274895 14.980547 0.00122938 14.980547 C 8.273597 14.980547 14.983155 8.274745 14.983155 -0.00137852 Z M 14.983155 -0.00137852 " stroke="#b08bbb" stroke-width="2" stroke-opacity="1" stroke-miterlimit="4"/><path fill="#b08bbb" d="M 750.410156 439.0625 C 750.410156 439.0625 651.175781 439.0625 651.175781 439.0625 C 645.433594 439.0625 640.777344 443.714844 640.777344 449.457031 C 640.777344 449.457031 640.777344 548.695312 640.777344 548.695312 C 640.777344 554.4375 645.433594 559.09375 651.175781 559.09375 C 651.175781 559.09375 750.410156 559.09375 750.410156 559.09375 C 756.152344 559.09375 760.808594 554.4375 760.808594 548.695312 C 760.808594 548.695312 760.808594 449.457031 760.808594 449.457031 C 760.808594 443.714844 756.152344 439.0625 750.410156 439.0625 Z M 750.410156 439.0625 " fill-opacity="1" fill-rule="nonzero"/><path fill="#b5d5c5" d="M 609.585938 439.0625 C 609.585938 439.0625 510.351562 439.0625 510.351562 439.0625 C 504.605469 439.0625 499.953125 443.714844 499.953125 449.457031 C 499.953125 449.457031 499.953125 548.695312 499.953125 548.695312 C 499.953125 554.4375 504.605469 559.09375 510.351562 559.09375 C 510.351562 559.09375 609.585938 559.09375 609.585938 559.09375 C 615.324219 559.09375 619.980469 554.4375 619.980469 548.695312 C 619.980469 548.695312 619.980469 449.457031 619.980469 449.457031 C 619.980469 443.714844 615.324219 439.0625 609.585938 439.0625 Z M 609.585938 439.0625 " fill-opacity="1" fill-rule="nonzero"/><path fill="#313131" d="M 760.808594 611.210938 C 760.808594 611.210938 640.777344 611.210938 640.777344 611.210938 C 640.777344 611.210938 640.777344 602.234375 640.777344 602.234375 C 640.777344 602.234375 760.808594 602.234375 760.808594 602.234375 C 760.808594 602.234375 760.808594 611.210938 760.808594 611.210938 Z M 760.808594 611.210938 " fill-opacity="1" fill-rule="nonzero"/><path fill="#313131" d="M 760.808594 628.8125 C 760.808594 628.8125 640.777344 628.8125 640.777344 628.8125 C 640.777344 628.8125 640.777344 619.835938 640.777344 619.835938 C 640.777344 619.835938 760.808594 619.835938 760.808594 619.835938 C 760.808594 619.835938 760.808594 628.8125 760.808594 628.8125 Z M 760.808594 628.8125 " fill-opacity="1" fill-rule="nonzero"/><path fill="#313131" d="M 760.808594 646.417969 C 760.808594 646.417969 640.777344 646.417969 640.777344 646.417969 C 640.777344 646.417969 640.777344 637.4375 640.777344 637.4375 C 640.777344 637.4375 760.808594 637.4375 760.808594 637.4375 C 760.808594 637.4375 760.808594 646.417969 760.808594 646.417969 Z M 760.808594 646.417969 " fill-opacity="1" fill-rule="nonzero"/><path fill="#313131" d="M 721.390625 664.015625 C 721.390625 664.015625 640.777344 664.015625 640.777344 664.015625 C 640.777344 664.015625 640.777344 655.039062 640.777344 655.039062 C 640.777344 655.039062 721.390625 655.039062 721.390625 655.039062 C 721.390625 655.039062 721.390625 664.015625 721.390625 664.015625 Z M 721.390625 664.015625 " fill-opacity="1" fill-rule="nonzero"/><path fill="#313131" d="M 755.175781 699.21875 C 755.175781 699.21875 640.777344 699.21875 640.777344 699.21875 C 640.777344 699.21875 640.777344 690.242188 640.777344 690.242188 C 640.777344 690.242188 755.175781 690.242188 755.175781 690.242188 C 755.175781 690.242188 755.175781 699.21875 755.175781 699.21875 Z M 755.175781 699.21875 " fill-opacity="1" fill-rule="nonzero"/><path fill="#313131" d="M 760.808594 716.820312 C 760.808594 716.820312 640.777344 716.820312 640.777344 716.820312 C 640.777344 716.820312 640.777344 707.84375 640.777344 707.84375 C 640.777344 707.84375 760.808594 707.84375 760.808594 707.84375 C 760.808594 707.84375 760.808594 716.820312 760.808594 716.820312 Z M 760.808594 716.820312 " fill-opacity="1" fill-rule="nonzero"/><path fill="#313131" d="M 746.554688 734.421875 C 746.554688 734.421875 640.777344 734.421875 640.777344 734.421875 C 640.777344 734.421875 640.777344 725.445312 640.777344 725.445312 C 640.777344 725.445312 746.554688 725.445312 746.554688 725.445312 C 746.554688 725.445312 746.554688 734.421875 746.554688 734.421875 Z M 746.554688 734.421875 " fill-opacity="1" fill-rule="nonzero"/><path fill="#f6efe3" d="M 745.136719 499.078125 C 745.136719 474.585938 725.28125 454.734375 700.792969 454.734375 C 676.300781 454.734375 656.449219 474.585938 656.449219 499.078125 C 656.449219 523.566406 676.300781 543.421875 700.792969 543.421875 C 725.28125 543.421875 745.136719 523.566406 745.136719 499.078125 Z M 745.136719 499.078125 " fill-opacity="1" fill-rule="nonzero"/><path fill="#b5d5c5" d="M 700.792969 499.078125 C 700.792969 499.078125 678.621094 460.671875 678.621094 460.671875 C 664.917969 468.585938 656.449219 483.253906 656.449219 499.078125 C 656.449219 523.402344 676.464844 543.421875 700.792969 543.421875 C 725.117188 543.421875 745.136719 523.402344 745.136719 499.078125 C 745.136719 499.078125 700.792969 499.078125 700.792969 499.078125 Z M 700.792969 499.078125 " fill-opacity="1" fill-rule="nonzero"/><path fill="#f6efe3" d="M 604.308594 500.125 C 604.308594 475.632812 584.457031 455.78125 559.96875 455.78125 C 535.476562 455.78125 515.625 475.632812 515.625 500.125 C 515.625 524.617188 535.476562 544.46875 559.96875 544.46875 C 584.457031 544.46875 604.308594 524.617188 604.308594 500.125 Z M 604.308594 500.125 " fill-opacity="1" fill-rule="nonzero"/><path fill="#b08bbb" d="M 559.96875 500.125 C 559.96875 500.125 537.796875 461.722656 537.796875 461.722656 C 524.09375 469.632812 515.625 484.300781 515.625 500.125 C 515.625 510.546875 519.296875 520.644531 525.996094 528.628906 C 525.996094 528.628906 559.96875 500.125 559.96875 500.125 Z M 559.96875 500.125 " fill-opacity="1" fill-rule="nonzero"/><path stroke-linecap="round" transform="matrix(1.039795, 0, 0, 1.039795, 1.010916, 0.00002)" fill="none" stroke-linejoin="round" d="M 308.696814 438.739739 C 308.696814 438.739739 459.845961 438.739739 459.845961 438.739739 " stroke="#313131" stroke-width="2" stroke-opacity="1" stroke-miterlimit="4"/><path stroke-linecap="round" transform="matrix(1.039795, 0, 0, 1.039795, 1.010916, 0.00002)" fill="none" stroke-linejoin="round" d="M 308.696814 457.482173 C 308.696814 457.482173 459.845961 457.482173 459.845961 457.482173 " stroke="#313131" stroke-width="2" stroke-opacity="1" stroke-miterlimit="4"/><path stroke-linecap="round" transform="matrix(1.039795, 0, 0, 1.039795, 1.010916, 0.00002)" fill="none" stroke-linejoin="round" d="M 308.696814 476.224607 C 308.696814 476.224607 459.845961 476.224607 459.845961 476.224607 " stroke="#313131" stroke-width="2" stroke-opacity="1" stroke-miterlimit="4"/><path stroke-linecap="round" transform="matrix(1.039795, 0, 0, 1.039795, 1.010916, 0.00002)" fill="none" stroke-linejoin="round" d="M 308.696814 494.967041 C 308.696814 494.967041 459.845961 494.967041 459.845961 494.967041 " stroke="#313131" stroke-width="2" stroke-opacity="1" stroke-miterlimit="4"/><path stroke-linecap="round" transform="matrix(1.039795, 0, 0, 1.039795, 1.010916, 0.00002)" fill="none" stroke-linejoin="round" d="M 308.696814 513.709475 C 308.696814 513.709475 459.845961 513.709475 459.845961 513.709475 " stroke="#313131" stroke-width="2" stroke-opacity="1" stroke-miterlimit="4"/><path fill="#b08bbb" d="M 369.785156 720.441406 C 369.785156 720.441406 342.789062 720.441406 342.789062 720.441406 C 342.789062 720.441406 342.789062 748.652344 342.789062 748.652344 C 342.789062 748.652344 369.785156 748.652344 369.785156 748.652344 C 369.785156 748.652344 369.785156 720.441406 369.785156 720.441406 Z M 369.785156 720.441406 " fill-opacity="1" fill-rule="nonzero"/><path fill="#b5d5c5" d="M 396.785156 719.976562 C 396.785156 719.976562 369.785156 719.976562 369.785156 719.976562 C 369.785156 719.976562 369.785156 748.652344 369.785156 748.652344 C 369.785156 748.652344 396.785156 748.652344 396.785156 748.652344 C 396.785156 748.652344 396.785156 719.976562 396.785156 719.976562 Z M 396.785156 719.976562 " fill-opacity="1" fill-rule="nonzero"/><path fill="#b08bbb" d="M 444.1875 719.789062 C 444.1875 719.789062 417.1875 719.789062 417.1875 719.789062 C 417.1875 719.789062 417.1875 748.652344 417.1875 748.652344 C 417.1875 748.652344 444.1875 748.652344 444.1875 748.652344 C 444.1875 748.652344 444.1875 719.789062 444.1875 719.789062 Z M 444.1875 719.789062 " fill-opacity="1" fill-rule="nonzero"/><path fill="#b5d5c5" d="M 470.957031 720.058594 C 470.957031 720.058594 444.1875 720.058594 444.1875 720.058594 C 444.1875 720.058594 444.1875 748.652344 444.1875 748.652344 C 444.1875 748.652344 470.957031 748.652344 470.957031 748.652344 C 470.957031 748.652344 470.957031 720.058594 470.957031 720.058594 Z M 470.957031 720.058594 " fill-opacity="1" fill-rule="nonzero"/><path fill="#b08bbb" d="M 518.585938 720.453125 C 518.585938 720.453125 491.585938 720.453125 491.585938 720.453125 C 491.585938 720.453125 491.585938 748.652344 491.585938 748.652344 C 491.585938 748.652344 518.585938 748.652344 518.585938 748.652344 C 518.585938 748.652344 518.585938 720.453125 518.585938 720.453125 Z M 518.585938 720.453125 " fill-opacity="1" fill-rule="nonzero"/><path fill="#b5d5c5" d="M 545.582031 720.523438 C 545.582031 720.523438 518.585938 720.523438 518.585938 720.523438 C 518.585938 720.523438 518.585938 748.652344 518.585938 748.652344 C 518.585938 748.652344 545.582031 748.652344 545.582031 748.652344 C 545.582031 748.652344 545.582031 720.523438 545.582031 720.523438 Z M 545.582031 720.523438 " fill-opacity="1" fill-rule="nonzero"/><path fill="#b08bbb" d="M 592.984375 719.789062 C 592.984375 719.789062 565.980469 719.789062 565.980469 719.789062 C 565.980469 719.789062 565.980469 748.652344 565.980469 748.652344 C 565.980469 748.652344 592.984375 748.652344 592.984375 748.652344 C 592.984375 748.652344 592.984375 719.789062 592.984375 719.789062 Z M 592.984375 719.789062 " fill-opacity="1" fill-rule="nonzero"/><path fill="#b5d5c5" d="M 619.980469 719.925781 C 619.980469 719.925781 592.984375 719.925781 592.984375 719.925781 C 592.984375 719.925781 592.984375 748.652344 592.984375 748.652344 C 592.984375 748.652344 619.980469 748.652344 619.980469 748.652344 C 619.980469 748.652344 619.980469 719.925781 619.980469 719.925781 Z M 619.980469 719.925781 " fill-opacity="1" fill-rule="nonzero"/><path stroke-linecap="round" transform="matrix(1.039795, 0, 0, 1.039795, 473.439509, 660.856043)" fill="none" stroke-linejoin="round" d="M -145.651195 -84.437303 C -145.651195 -84.437303 -145.651195 84.436199 -145.651195 84.436199 C -145.651195 84.436199 145.651087 84.436199 145.651087 84.436199 " stroke="#313131" stroke-width="2" stroke-opacity="1" stroke-miterlimit="4"/></svg>